<svg width="25" height="30" viewBox="0 0 25 30" fill="none" xmlns="http://www.w3.org/2000/svg">
<path d="M22.4362 3.29375L12.5 0L2.56375 3.29375C1.81815 3.53878 1.16891 4.0129 0.708563 4.64854C0.248215 5.28419 0.00024806 6.04892 0 6.83375V14.9888C0 24.3938 11.5 29.5875 11.9925 29.8037L12.435 30L12.895 29.8475C13.3888 29.6825 25 25.71 25 14.9888V6.83375C24.9996 6.04896 24.7515 5.28432 24.2912 4.64872C23.8309 4.01311 23.1817 3.53895 22.4362 3.29375ZM22.5 14.9888C22.5 22.8175 14.5637 26.5087 12.5587 27.315C10.55 26.3112 2.5 21.8563 2.5 14.9888V6.83375C2.50011 6.57209 2.58283 6.31714 2.73636 6.10525C2.88988 5.89336 3.10639 5.73536 3.355 5.65375L12.5 2.62125L21.645 5.65375C21.8938 5.73502 22.1105 5.89295 22.2641 6.10491C22.4177 6.31687 22.5003 6.572 22.5 6.83375V14.9888Z" fill="#00AAE7"/>
</svg>
